M48
; DRILL file {KiCad (6.0.2-0)} date Thursday, April 21, 2022 at 10:57:20 AM
; FORMAT={-:-/ absolute / inch / decimal}
; #@! TF.CreationDate,2022-04-21T10:57:20-07:00
; #@! TF.GenerationSoftware,Kicad,Pcbnew,(6.0.2-0)
; #@! TF.FileFunction,MixedPlating,1,2
FMAT,2
INCH
; #@! TA.AperFunction,Plated,PTH,ViaDrill
T1C0.0157
; #@! TA.AperFunction,Plated,PTH,ComponentDrill
T2C0.0315
; #@! TA.AperFunction,Plated,PTH,ComponentDrill
T3C0.0394
; #@! TA.AperFunction,Plated,PTH,ComponentDrill
T4C0.0598
; #@! TA.AperFunction,NonPlated,NPTH,ComponentDrill
T5C0.1772
%
G90
G05
T1
X3.708Y-4.116
X3.716Y-2.502
X3.738Y-4.27
X3.742Y-4.36
X3.744Y-2.386
X3.772Y-4.188
X3.864Y-4.36
X3.866Y-4.272
X3.88Y-2.378
X3.932Y-3.6
X3.988Y-4.36
X4.028Y-2.378
X4.21Y-3.27
X4.286Y-2.692
X4.29Y-3.216
X4.468Y-2.62
X4.546Y-3.214
X4.572Y-2.624
X4.64Y-3.292
X4.668Y-2.58
X4.67Y-2.502
X4.713Y-3.379
X4.74Y-4.326
X4.7407Y-4.4193
X4.752Y-2.85
X4.756Y-2.502
X4.78Y-4.378
X4.796Y-3.544
X4.822Y-4.4007
X4.838Y-4.2625
X4.866Y-3.618
X4.8707Y-4.2953
X4.886Y-3.426
X4.8967Y-4.3933
X4.8998Y-4.3258
X4.9Y-3.3
X4.91Y-3.704
X4.9191Y-4.3609
X4.9196Y-4.4481
X4.936Y-3.376
X4.9482Y-4.3902
X4.9767Y-4.4197
X4.992Y-3.712
X5.0152Y-4.227
X5.032Y-3.376
X5.082Y-3.622
X5.086Y-3.308
X5.088Y-3.422
X5.0975Y-4.452
X5.1118Y-4.1679
X5.1395Y-4.1999
X5.1749Y-4.1827
X5.2612Y-4.2287
X5.2816Y-4.4739
X5.3156Y-4.4273
X5.3532Y-4.4454
X5.4364Y-4.4631
X5.464Y-4.2999
X5.47Y-3.638
X5.5082Y-4.3194
X5.514Y-3.066
X5.528Y-3.97
X5.536Y-3.188
X5.5429Y-4.338
X5.546Y-3.394
X5.572Y-3.224
X5.5742Y-4.2999
X5.576Y-2.998
X5.6Y-4.34
X5.608Y-3.602
X5.6313Y-4.3059
X5.6571Y-4.3446
X5.6882Y-4.3205
X5.6923Y-4.3714
X5.714Y-4.4568
X5.752Y-2.844
X5.7853Y-4.3829
X5.7905Y-4.4669
X5.826Y-4.3829
X5.846Y-3.816
X5.8571Y-3.616
X5.946Y-3.616
X6.0132Y-4.4292
X6.11Y-2.45
X6.1394Y-3.572
X6.15Y-3.506
X6.1784Y-3.7653
X6.1806Y-3.7247
X6.1806Y-3.6626
X6.288Y-3.33
X6.326Y-2.442
X6.3408Y-3.3568
X6.3428Y-3.3052
X6.4079Y-3.2165
X6.492Y-4.402
X6.602Y-4.434
X6.624Y-4.108
X6.63Y-2.698
X6.634Y-2.512
X6.634Y-3.064
X6.634Y-3.25
X6.634Y-3.414
X6.634Y-3.79
X6.638Y-2.87
X6.638Y-3.588
X6.638Y-3.958
X6.638Y-4.324
T2
X3.83Y-3.6056
X3.83Y-3.8024
X3.8586Y-3.1086
X3.8586Y-3.4086
X3.8606Y-2.5006
X3.8606Y-2.8006
X3.8616Y-2.942
X3.9586Y-3.1086
X3.9586Y-3.4086
X3.9606Y-2.5006
X3.9606Y-2.8006
X4.0584Y-2.942
X4.0586Y-3.1086
X4.0586Y-3.4086
X4.0606Y-2.5006
X4.0606Y-2.8006
X4.1586Y-3.1086
X4.1586Y-3.4086
X4.1606Y-2.5006
X4.1606Y-2.8006
X4.2586Y-3.1086
X4.2586Y-3.4086
X4.2606Y-2.5006
X4.2606Y-2.8006
X4.3586Y-3.1086
X4.3586Y-3.4086
X4.3606Y-2.5006
X4.3606Y-2.8006
X4.4586Y-3.1086
X4.4586Y-3.4086
X4.4606Y-2.5006
X4.4606Y-2.8006
X4.5586Y-3.1086
X4.5586Y-3.4086
X4.5606Y-2.5006
X4.5606Y-2.8006
X4.84Y-3.792
X4.8926Y-2.4982
X4.8926Y-2.5982
X4.8926Y-2.6982
X4.8926Y-2.7982
X4.8926Y-2.8982
X4.8926Y-2.9982
X4.8926Y-3.0982
X4.9876Y-3.626
X4.9911Y-3.458
X4.9916Y-3.3
X5.1844Y-3.626
X5.188Y-3.458
X5.1884Y-3.3
X5.1926Y-2.4982
X5.1926Y-2.5982
X5.1926Y-2.6982
X5.1926Y-2.7982
X5.1926Y-2.8982
X5.1926Y-2.9982
X5.1926Y-3.0982
X5.24Y-3.792
X5.394Y-2.494
X5.394Y-2.594
X5.394Y-2.694
X5.394Y-2.794
X5.394Y-2.894
X5.394Y-2.994
X5.394Y-3.094
X5.394Y-3.194
X5.394Y-3.412
X5.394Y-3.512
X5.394Y-3.612
X5.394Y-3.712
X5.394Y-3.812
X5.394Y-3.912
X5.394Y-4.012
X5.394Y-4.112
X5.694Y-2.494
X5.694Y-2.594
X5.694Y-2.694
X5.694Y-2.794
X5.694Y-2.894
X5.694Y-2.994
X5.694Y-3.094
X5.694Y-3.194
X5.694Y-3.412
X5.694Y-3.512
X5.694Y-3.612
X5.694Y-3.712
X5.694Y-3.812
X5.694Y-3.912
X5.694Y-4.012
X5.694Y-4.112
X5.8156Y-4.096
X6.0124Y-4.096
T3
X4.082Y-3.606
X4.082Y-3.706
X4.182Y-3.606
X4.182Y-3.706
X4.282Y-3.606
X4.282Y-3.706
X4.382Y-3.606
X4.382Y-3.706
X4.482Y-3.606
X4.482Y-3.706
X4.582Y-3.606
X4.582Y-3.706
X4.594Y-3.978
X4.594Y-4.078
X4.682Y-3.606
X4.682Y-3.706
X4.694Y-3.978
X4.694Y-4.078
X4.794Y-3.978
X4.794Y-4.078
X4.8Y-3.292
X4.8Y-3.392
X4.894Y-3.978
X4.894Y-4.078
X4.994Y-3.978
X4.994Y-4.078
X5.094Y-3.978
X5.094Y-4.078
X5.194Y-3.978
X5.194Y-4.078
T4
X5.9012Y-2.466
X5.9012Y-2.566
X5.9012Y-2.666
X5.9012Y-2.766
X5.9012Y-2.866
X5.9012Y-2.966
X5.9012Y-3.066
X5.9012Y-3.166
X5.9012Y-3.266
X5.9012Y-3.366
X5.9012Y-3.466
X5.9012Y-3.566
X5.9012Y-3.666
X5.9012Y-3.766
X5.9012Y-3.866
X5.9012Y-3.966
X6.5012Y-2.466
X6.5012Y-2.566
X6.5012Y-2.666
X6.5012Y-2.766
X6.5012Y-2.866
X6.5012Y-2.966
X6.5012Y-3.066
X6.5012Y-3.166
X6.5012Y-3.266
X6.5012Y-3.366
X6.5012Y-3.466
X6.5012Y-3.566
X6.5012Y-3.666
X6.5012Y-3.766
X6.5012Y-3.866
X6.5012Y-3.966
T5
X4.2979Y-4.0268
X6.5026Y-4.2316
T0
M30
