%TF.GenerationSoftware,KiCad,Pcbnew,(6.0.2-0)*%
%TF.CreationDate,2022-04-21T10:57:24-07:00*%
%TF.ProjectId,megarom,6d656761-726f-46d2-9e6b-696361645f70,rev?*%
%TF.SameCoordinates,Original*%
%TF.FileFunction,Soldermask,Top*%
%TF.FilePolarity,Negative*%
%FSLAX46Y46*%
G04 Gerber Fmt 4.6, Leading zero omitted, Abs format (unit mm)*
G04 Created by KiCad (PCBNEW (6.0.2-0)) date 2022-04-21 10:57:24*
%MOMM*%
%LPD*%
G01*
G04 APERTURE LIST*
%ADD10O,2.400000X1.600000*%
%ADD11R,1.600000X2.400000*%
%ADD12O,1.600000X2.400000*%
%ADD13C,1.600000*%
%ADD14R,2.400000X1.600000*%
%ADD15O,1.600000X1.600000*%
%ADD16R,1.700000X1.700000*%
%ADD17O,1.700000X1.700000*%
%ADD18R,1.800000X8.000000*%
%ADD19R,1.800000X7.000000*%
%ADD20C,4.500000*%
G04 APERTURE END LIST*
D10*
%TO.C,U4*%
X149890800Y-100736400D03*
X149890800Y-98196400D03*
X149890800Y-95656400D03*
X149890800Y-93116400D03*
X149890800Y-90576400D03*
X149890800Y-88036400D03*
X149890800Y-85496400D03*
X149890800Y-82956400D03*
X149890800Y-80416400D03*
X149890800Y-77876400D03*
X149890800Y-75336400D03*
X149890800Y-72796400D03*
X149890800Y-70256400D03*
X149890800Y-67716400D03*
X149890800Y-65176400D03*
X149890800Y-62636400D03*
X165130800Y-62636400D03*
X165130800Y-65176400D03*
X165130800Y-67716400D03*
X165130800Y-70256400D03*
X165130800Y-72796400D03*
X165130800Y-75336400D03*
X165130800Y-77876400D03*
X165130800Y-80416400D03*
X165130800Y-82956400D03*
X165130800Y-85496400D03*
X165130800Y-88036400D03*
X165130800Y-90576400D03*
X165130800Y-93116400D03*
X165130800Y-95656400D03*
X165130800Y-98196400D03*
X165130800Y-100736400D03*
%TD*%
D11*
%TO.C,U2*%
X98008200Y-86578200D03*
D12*
X100548200Y-86578200D03*
X103088200Y-86578200D03*
X105628200Y-86578200D03*
X108168200Y-86578200D03*
X110708200Y-86578200D03*
X113248200Y-86578200D03*
X115788200Y-86578200D03*
X115788200Y-78958200D03*
X113248200Y-78958200D03*
X110708200Y-78958200D03*
X108168200Y-78958200D03*
X105628200Y-78958200D03*
X103088200Y-78958200D03*
X100548200Y-78958200D03*
X98008200Y-78958200D03*
%TD*%
D13*
%TO.C,C6*%
X131684400Y-92100400D03*
X126684400Y-92100400D03*
%TD*%
%TO.C,C5*%
X131775200Y-87833200D03*
X126775200Y-87833200D03*
%TD*%
D14*
%TO.C,U6*%
X144627600Y-104444800D03*
D10*
X144627600Y-101904800D03*
X144627600Y-99364800D03*
X144627600Y-96824800D03*
X144627600Y-94284800D03*
X144627600Y-91744800D03*
X144627600Y-89204800D03*
X144627600Y-86664800D03*
X137007600Y-86664800D03*
X137007600Y-89204800D03*
X137007600Y-91744800D03*
X137007600Y-94284800D03*
X137007600Y-96824800D03*
X137007600Y-99364800D03*
X137007600Y-101904800D03*
X137007600Y-104444800D03*
%TD*%
D14*
%TO.C,U5*%
X144627600Y-81127600D03*
D10*
X144627600Y-78587600D03*
X144627600Y-76047600D03*
X144627600Y-73507600D03*
X144627600Y-70967600D03*
X144627600Y-68427600D03*
X144627600Y-65887600D03*
X144627600Y-63347600D03*
X137007600Y-63347600D03*
X137007600Y-65887600D03*
X137007600Y-68427600D03*
X137007600Y-70967600D03*
X137007600Y-73507600D03*
X137007600Y-76047600D03*
X137007600Y-78587600D03*
X137007600Y-81127600D03*
%TD*%
D13*
%TO.C,R1*%
X122936000Y-96316800D03*
D15*
X133096000Y-96316800D03*
%TD*%
D16*
%TO.C,P8*%
X121920000Y-86156800D03*
D17*
X121920000Y-83616800D03*
%TD*%
D16*
%TO.C,P7*%
X118922800Y-91592400D03*
D17*
X118922800Y-94132400D03*
X116382800Y-91592400D03*
X116382800Y-94132400D03*
X113842800Y-91592400D03*
X113842800Y-94132400D03*
X111302800Y-91592400D03*
X111302800Y-94132400D03*
X108762800Y-91592400D03*
X108762800Y-94132400D03*
X106222800Y-91592400D03*
X106222800Y-94132400D03*
X103682800Y-91592400D03*
X103682800Y-94132400D03*
%TD*%
D14*
%TO.C,U1*%
X131891800Y-78694200D03*
D10*
X131891800Y-76154200D03*
X131891800Y-73614200D03*
X131891800Y-71074200D03*
X131891800Y-68534200D03*
X131891800Y-65994200D03*
X131891800Y-63454200D03*
X124271800Y-63454200D03*
X124271800Y-65994200D03*
X124271800Y-68534200D03*
X124271800Y-71074200D03*
X124271800Y-73614200D03*
X124271800Y-76154200D03*
X124271800Y-78694200D03*
%TD*%
D13*
%TO.C,C4*%
X98084000Y-74726800D03*
X103084000Y-74726800D03*
%TD*%
D11*
%TO.C,U3*%
X98059000Y-71135000D03*
D12*
X100599000Y-71135000D03*
X103139000Y-71135000D03*
X105679000Y-71135000D03*
X108219000Y-71135000D03*
X110759000Y-71135000D03*
X113299000Y-71135000D03*
X115839000Y-71135000D03*
X115839000Y-63515000D03*
X113299000Y-63515000D03*
X110759000Y-63515000D03*
X108219000Y-63515000D03*
X105679000Y-63515000D03*
X103139000Y-63515000D03*
X100599000Y-63515000D03*
X98059000Y-63515000D03*
%TD*%
D18*
%TO.C,P1*%
X106822240Y-118412640D03*
X109362240Y-118412640D03*
X111902240Y-118412640D03*
D19*
X114437160Y-117919880D03*
D18*
X116982240Y-118412640D03*
X119522240Y-118412640D03*
X122062240Y-118412640D03*
X124602240Y-118412640D03*
X127142240Y-118412640D03*
X129682240Y-118412640D03*
X132222240Y-118412640D03*
X134762240Y-118412640D03*
X137302240Y-118412640D03*
X139842240Y-118412640D03*
X142382240Y-118412640D03*
X144922240Y-118412640D03*
X147462240Y-118412640D03*
X150002240Y-118412640D03*
X152542240Y-118412640D03*
X155082240Y-118412640D03*
X157622240Y-118412640D03*
X160162240Y-118412640D03*
X162702240Y-118412640D03*
X165242240Y-118412640D03*
X167782240Y-118412640D03*
D20*
X109166660Y-102280720D03*
X165166040Y-107482640D03*
%TD*%
D13*
%TO.C,C2*%
X97282000Y-91581600D03*
X97282000Y-96581600D03*
%TD*%
%TO.C,C1*%
X126786000Y-83820000D03*
X131786000Y-83820000D03*
%TD*%
D16*
%TO.C,P2*%
X131927600Y-101041200D03*
D17*
X131927600Y-103581200D03*
X129387600Y-101041200D03*
X129387600Y-103581200D03*
X126847600Y-101041200D03*
X126847600Y-103581200D03*
X124307600Y-101041200D03*
X124307600Y-103581200D03*
X121767600Y-101041200D03*
X121767600Y-103581200D03*
X119227600Y-101041200D03*
X119227600Y-103581200D03*
X116687600Y-101041200D03*
X116687600Y-103581200D03*
%TD*%
D13*
%TO.C,C3*%
X147715600Y-104038400D03*
X152715600Y-104038400D03*
%TD*%
M02*
